<?xml version="1.0" encoding="UTF-8"?>
<svg id="Ebene_1" xmlns="http://www.w3.org/2000/svg" viewBox="0 0 1000 1000">
  <defs>
    <style>
      .cls-1 {
        fill: #fff;
      }
    </style>
  </defs>
  <path class="cls-1" d="M629.3,897.48c-35.05,34.01-82.63,55.18-135.15,55.92-110.49,1.56-201.51-88.56-201.02-199.05.08-18.26,2.63-35.95,7.34-52.73.74-2.63-1.65-5.04-4.28-4.32-15.38,4.18-31.5,6.56-48.14,6.89-111.59,2.19-203.59-89.17-202.13-200.77,1.41-108.23,89.59-195.54,198.16-195.54,14.13,0,27.93,1.49,41.23,4.3,2.98.63,5.35,2.88,6.12,5.83,9.38,36,26.09,65.82,50.37,90.17,35.67,35.75,82.31,55.98,131.7,77.41,96.12,41.68,195.22,84.66,213.16,250.79,6.44,59.63-14.3,119.34-57.35,161.1Z"/>
  <path class="cls-1" d="M950.41,530.24c-15.01,78.94-76.94,141.08-155.83,156.33-27.92,5.4-54.95,4.95-80.23-.28-3.3-.68-5.9-3.26-6.61-6.55-11.02-51.2-31.59-92.83-62.04-125.96-42.62-46.37-98.58-70.62-152.71-94.1-83.85-36.36-163.61-70.94-181.41-185.11-14.06-90.14,33.98-179.22,118.23-214.22,31.42-13.05,66.89-18.29,104-13.31,88.24,11.85,158.04,81.79,169.85,170.03,3.71,27.72,1.68,54.49-5.01,79.35-.44,1.63,1.07,3.13,2.69,2.68,17.02-4.73,34.95-7.27,53.48-7.27,122.86,0,219.76,111.18,195.57,238.41Z"/>
</svg>